<?xml version="1.0" standalone="no"?>
<!DOCTYPE svg PUBLIC "-//W3C//DTD SVG 20010904//EN"
 "http://www.w3.org/TR/2001/REC-SVG-20010904/DTD/svg10.dtd">
<svg version="1.0" xmlns="http://www.w3.org/2000/svg"
 width="201.000000pt" height="201.000000pt" viewBox="0 0 201.000000 201.000000"
 preserveAspectRatio="xMidYMid meet">
<metadata>
Created by potrace 1.14, written by Peter Selinger 2001-2017
</metadata>
<g transform="translate(0.000000,201.000000) scale(0.100000,-0.100000)"
fill="#000000" stroke="none">
<path d="M700 1596 c-41 -23 -149 -83 -240 -133 -91 -50 -190 -105 -220 -123
-30 -17 -69 -37 -87 -45 -17 -8 -34 -19 -38 -25 -7 -11 -4 -14 85 -90 36 -30
71 -60 77 -67 10 -9 -12 -25 -97 -73 -61 -33 -110 -64 -110 -68 0 -4 28 -22
62 -40 35 -19 84 -45 110 -59 l46 -27 0 -218 c-1 -121 3 -223 8 -228 5 -5 41
-26 79 -48 39 -21 90 -50 115 -64 25 -14 99 -56 165 -93 66 -37 140 -79 165
-93 25 -14 76 -42 113 -63 l68 -39 117 67 c64 36 142 80 172 96 30 16 60 33
65 37 6 4 37 22 70 40 61 34 98 55 158 89 17 10 52 30 77 44 l45 25 3 224 2
224 33 17 c40 21 122 66 164 92 l33 19 -115 64 c-90 50 -112 66 -102 75 7 7
39 35 72 62 108 90 107 89 93 95 -7 3 -63 33 -124 67 l-110 63 2 53 c2 53 2
54 -37 76 -24 14 -47 20 -59 16 -11 -4 -20 -2 -20 4 0 17 -42 13 -74 -8 -32
-22 -56 -18 -56 9 0 10 -14 24 -35 34 -19 9 -37 21 -41 27 -3 6 -19 7 -34 4
-19 -4 -37 -1 -54 10 -25 17 -27 16 -133 -51 -60 -37 -117 -75 -128 -83 -18
-15 -19 -15 -7 1 12 14 5 22 -55 60 -92 59 -140 88 -144 87 -2 0 -38 -19 -79
-43z"/>
</g>
</svg>
